<svg width="100" height="85" viewBox="0 0 100 85" fill="none" xmlns="http://www.w3.org/2000/svg">
<path d="M34.5665 0.5C32.9124 0.5 31.3788 1.36535 30.5236 2.78127L0.68021 52.192C-0.223163 53.6876 -0.226979 55.5599 0.670292 57.0592L15.4828 81.8113C16.3358 83.2365 17.8747 84.109 19.5357 84.109H79.5299C81.1849 84.109 82.7192 83.2427 83.5741 81.8255L98.5127 57.0615C99.4176 55.5614 99.4179 53.6837 98.5134 52.1833L68.7324 2.78459C67.8777 1.36678 66.343 0.5 64.6875 0.5H34.5665Z" fill="black"/>
<path fill-rule="evenodd" clip-rule="evenodd" d="M62.2961 39.5813C62.334 39.8418 62.1822 39.9907 61.9925 39.9535H61.6129C60.5057 39.9535 58.6836 40.036 57.2541 40.1007C56.3313 40.1424 55.5721 40.1768 55.2744 40.1768C55.1605 40.1768 55.0466 40.1024 55.0087 39.9163C54.318 38.3078 53.5332 36.5684 52.7398 34.8102C51.7893 32.7036 50.8265 30.5698 49.999 28.6021H48.1392C48.134 28.6676 48.1289 28.7318 48.1239 28.7948L48.1238 28.7953C48.0916 29.1971 48.0633 29.551 48.0633 29.9047C48.0443 30.1839 48.0443 30.4444 48.0443 30.7049C48.0443 30.9654 48.0443 31.226 48.0253 31.5051L47.9114 35.599L47.7596 39.0231C47.7217 39.4324 47.6837 39.693 47.1903 40.1024C45.1407 40.1024 43.0911 40.0651 41.0415 39.9907C40.9277 39.5813 40.8518 39.2836 40.8518 38.9486L41.0036 34.4453C41.0415 31.9145 41.0415 29.4581 41.0415 26.9273C41.0415 24.4337 41.0036 21.9774 40.9277 19.521C40.8897 17.9951 40.7759 16.4319 40.662 14.906V13.0079C41.0795 12.5241 41.459 12.4124 41.9525 12.4124C42.3872 12.3995 42.8174 12.3821 43.243 12.3649C44.0436 12.3325 44.828 12.3008 45.5962 12.3008H50.2643C54.8568 12.3008 60.2127 12.9707 61.4273 18.1812C61.9966 20.6003 61.4652 22.8706 60.2886 25.0664C59.5361 26.5422 57.7766 27.2499 56.304 27.8422L56.2653 27.8578C56.4972 28.767 56.9718 29.6249 57.4309 30.4546C57.6482 30.8474 57.8621 31.234 58.0451 31.6167C58.7662 33.0682 59.5253 34.5196 60.2843 35.971C60.4931 36.3618 60.8063 36.8923 61.1195 37.4227C61.4326 37.953 61.7457 38.4834 61.9545 38.8742C61.9886 38.9326 62.0226 38.9873 62.0554 39.04C62.1687 39.222 62.2667 39.3792 62.2961 39.5813ZM47.7976 17.9951V22.945C49.3538 22.945 50.572 22.945 51.9764 22.9078C52.2421 22.9078 52.5457 22.8334 52.8494 22.6473C53.8741 22.2379 54.6712 21.0469 54.5194 20.1537C54.2917 18.7767 53.4946 18.0323 52.1282 17.9206C50.8757 17.8462 49.8472 17.809 48.5946 17.809C48.329 17.809 48.1012 17.8834 47.7976 17.9951Z" fill="white"/>
<path d="M58.0056 62.4786C58.2449 62.7275 58.4832 62.9886 58.724 63.2524C59.0916 63.6551 59.465 64.0641 59.8563 64.446C61.7903 66.4584 63.2119 67.7707 66.4034 68.0041C67.7404 68.1019 68.9594 68.0351 70.1692 67.4999C72.1922 66.5175 72.0463 64.363 70.8205 63.3379C69.9686 62.535 69.0135 61.9584 67.6766 61.8606C66.7709 61.7944 65.822 61.725 64.9248 61.5425C64.3497 61.4029 63.7882 61.2255 63.2266 61.048C62.6651 60.8705 62.1036 60.693 61.5284 60.5535C59.8691 60.1203 58.6723 59.2922 57.5844 58.1602C56.131 56.6896 55.8358 54.7971 55.67 52.914C55.5127 50.9146 56.546 49.2361 57.867 47.7736C60.5091 44.8485 64.9501 44.004 68.9695 44.181C70.3928 44.2851 72.3516 44.6186 73.5655 45.2141C74.4155 45.5979 75.1926 45.9763 75.9698 46.3547C76.2289 46.4808 76.4879 46.607 76.7497 46.7333C77.627 47.1872 78.3205 47.7837 78.8733 48.5257C79.1525 48.8579 79.2161 49.1744 78.9777 49.4688L76.5094 53.5759C76.2598 54.0254 75.8603 54.1521 75.202 54.2599C74.0789 52.4237 70.4135 50.5232 68.0415 50.3497C66.1869 50.214 64.4681 50.5951 63.6964 52.2537C63.2861 53.1202 63.8571 54.799 64.9041 55.3044C65.5312 55.6231 66.1696 55.7867 66.8512 55.9535C67.5341 56.0812 68.2266 56.1724 68.9178 56.2634C69.9582 56.4004 70.9955 56.537 71.9925 56.7972C74.1581 57.4234 76.1284 58.347 77.6941 60.0597C79.3723 62.0144 80.0789 64.2099 79.7709 66.643C79.4799 68.8435 78.5158 70.7609 76.3839 72.0472C73.4847 73.7451 69.3308 74.2209 65.8805 73.9685C62.4302 73.7162 58.3982 72.5248 56.0125 70.1675C55.8714 70.0208 55.762 69.8861 55.6527 69.7514C55.5433 69.6168 55.4339 69.4821 55.2929 69.3353C54.7747 68.7128 54.6907 68.083 55.0436 67.4072C55.5303 66.5311 55.9453 65.6332 56.3581 64.7402C56.5806 64.2588 56.8026 63.7786 57.0347 63.3041C57.0507 63.2716 57.0662 63.2395 57.0814 63.2079C57.2594 62.8381 57.4017 62.5422 58.0056 62.4786Z" fill="white"/>
<path d="M23.5515 45.3028C23.5919 45.2631 23.6468 45.241 23.7038 45.241H31.3835C31.6395 45.241 31.7381 45.7558 31.5166 45.8824C31.3918 45.9537 31.2387 46.0295 31.0765 46.1098C30.7307 46.2809 30.3437 46.4725 30.1024 46.6844C28.8466 47.7536 27.8762 49.3239 27.1913 51.3954C26.5348 53.4668 26.2066 55.9894 26.2066 58.9629C26.2066 61.9031 26.5348 64.4089 27.1913 66.4804C27.8762 68.5519 28.8466 70.1389 30.1024 71.2414C30.3106 71.4243 30.6496 71.5919 30.9579 71.7445C31.125 71.8271 31.2832 71.9054 31.4067 71.9792C31.6318 72.1138 31.5099 72.7632 31.2467 72.7632H23.7763C23.7201 72.7632 23.666 72.7418 23.6257 72.7031C22.4317 71.5575 21.4368 70.1849 20.6412 68.5853C19.3283 65.9124 18.6719 62.705 18.6719 58.9629C18.6719 55.2209 19.3283 52.0302 20.6412 49.3907C21.4203 47.8045 22.3904 46.4418 23.5515 45.3028Z" fill="white"/>
<path d="M36.3415 45.8909C36.1201 45.7631 36.2198 45.241 36.4764 45.241H43.7994C43.8568 45.241 43.9119 45.2633 43.9524 45.3035C45.1028 46.4424 46.0673 47.8048 46.846 49.3907C48.187 52.0302 48.8575 55.2209 48.8575 58.9629C48.8575 62.705 48.187 65.9124 46.846 68.5853C46.0508 70.1846 45.0617 71.557 43.8789 72.7025C43.8385 72.7416 43.7841 72.7632 43.7276 72.7632H36.6228C36.3591 72.7632 36.235 72.1014 36.4596 71.9651C36.8002 71.7583 37.1239 71.5171 37.4307 71.2414C38.686 70.1389 39.6418 68.5519 40.2981 66.4804C40.9543 64.4089 41.2824 61.9031 41.2824 58.9629C41.2824 55.9894 40.9543 53.4668 40.2981 51.3954C39.6418 49.3239 38.686 47.7536 37.4307 46.6844C37.0887 46.3771 36.7256 46.1126 36.3415 45.8909Z" fill="white"/>
</svg>
