<svg width="50" height="50" viewBox="0 0 50 50" fill="none" xmlns="http://www.w3.org/2000/svg">
<circle cx="25" cy="25" r="25" fill="white"/>
<path d="M21.15 25H21.25C24.0114 25 26.25 22.7614 26.25 20V18.0375C26.2467 16.9159 25.7963 15.842 24.9985 15.0536C24.2008 14.2652 23.1215 13.8275 22 13.8375H20.35C18.0332 13.8444 16.1569 15.7208 16.15 18.0375V20C16.15 22.7614 18.3886 25 21.15 25Z" fill="black"/>
<path d="M31.875 24.0625C33.9461 24.0625 35.625 22.3836 35.625 20.3125V18.875C35.625 17.145 34.2299 15.7387 32.5 15.725H31.25C29.5201 15.7387 28.1249 17.145 28.125 18.875V20.3125C28.125 22.3836 29.8039 24.0625 31.875 24.0625Z" fill="black"/>
<path d="M37.9875 29.275L37.7875 28.2875C37.5511 26.9319 36.3761 25.9413 35 25.9375H27.375C26.4432 25.9395 25.5746 26.409 25.0625 27.1875H16.25C15.3658 27.1881 14.5157 27.5282 13.875 28.1375C13.3245 28.6419 12.9372 29.2991 12.7625 30.025C12.7625 30.0875 12.7625 30.15 12.7625 30.2V30.525L12.5 31.525C12.2326 32.619 12.4711 33.7753 13.1496 34.6743C13.828 35.5732 14.8746 36.1196 16 36.1625H26.35C26.6156 36.1616 26.8801 36.128 27.1375 36.0625H27.3C27.4878 36.009 27.6716 35.9422 27.85 35.8625L28.05 35.75C28.1992 35.6658 28.3413 35.5696 28.475 35.4625L28.675 35.3C28.7979 35.1854 28.9148 35.0644 29.025 34.9375C29.025 34.875 29.1375 34.825 29.1875 34.75C29.3272 34.5665 29.4486 34.3697 29.55 34.1625C29.6033 34.0489 29.6492 33.932 29.6875 33.8125C29.7366 33.6986 29.7784 33.5817 29.8125 33.4625C29.8125 33.3375 29.875 33.2125 29.9 33.0875V32.9H35.25C36.1327 32.8739 36.9558 32.4487 37.488 31.744C38.0202 31.0393 38.2039 30.1312 37.9875 29.275Z" fill="black"/>
</svg>
