<svg width="50" height="50" viewBox="0 0 50 50" fill="none" xmlns="http://www.w3.org/2000/svg">
<circle cx="25" cy="25" r="25" fill="white"/>
<path fill-rule="evenodd" clip-rule="evenodd" d="M34.7 28.4691L32.075 27.5941V23.6191C31.9859 19.2132 29.6771 15.1505 25.9375 12.8191C25.275 12.3936 24.4251 12.3936 23.7625 12.8191C20.0229 15.1505 17.7141 19.2132 17.625 23.6191V27.6441L15 28.5191C14.2499 28.7723 13.7462 29.4774 13.75 30.2691V35.2691C13.7518 36.0192 14.1135 36.7228 14.7223 37.1609C15.3312 37.599 16.1133 37.7183 16.825 37.4816L18.075 37.0566C18.4324 37.4145 18.9193 37.6129 19.425 37.6066H21.3375C22.2217 37.6568 22.9833 36.9898 23.05 36.1066V32.7441C23.1168 31.8127 23.9175 31.1065 24.85 31.1566C25.7825 31.1065 26.5832 31.8127 26.65 32.7441V36.0066C26.7167 36.8898 27.4783 37.5568 28.3625 37.5066H30.2625C30.7683 37.5129 31.2551 37.3145 31.6125 36.9566L32.8625 37.3816C33.5816 37.6298 34.3764 37.5126 34.9932 37.0674C35.61 36.6222 35.9716 35.9048 35.9625 35.1441V30.1441C35.933 29.3769 35.4295 28.7088 34.7 28.4691ZM25.7875 27.5066C25.7875 28.0244 25.3678 28.4441 24.85 28.4441C24.3323 28.4441 23.9125 28.0244 23.9125 27.5066V25.3191C23.9125 24.8014 24.3323 24.3816 24.85 24.3816C25.3678 24.3816 25.7875 24.8014 25.7875 25.3191V27.5066ZM22.9375 21.2566C22.9375 22.3129 23.7938 23.1691 24.85 23.1691C25.9034 23.1623 26.7557 22.31 26.7625 21.2566C26.7625 20.2004 25.9063 19.3441 24.85 19.3441C23.7938 19.3441 22.9375 20.2004 22.9375 21.2566Z" fill="black"/>
</svg>
