<svg width="119" height="25" viewBox="0 0 119 25" fill="none" xmlns="http://www.w3.org/2000/svg">
<path d="M40.5118 9.75645C40.5249 9.84775 40.4727 9.89993 40.4075 9.88688H40.277C39.651 9.88688 38.3597 9.96514 38.0988 9.96514C38.0597 9.96514 38.0205 9.93906 38.0075 9.87384C37.4858 8.63472 36.8336 7.17386 36.3119 5.90865H35.6727C35.6597 6.07822 35.6466 6.22169 35.6466 6.36517C35.6336 6.56082 35.6466 6.73038 35.6336 6.92603L35.5945 8.36081L35.5423 9.5608C35.5293 9.70428 35.5162 9.79558 35.3467 9.93906C34.6423 9.93906 33.938 9.92601 33.2336 9.89993C33.1945 9.75645 33.1684 9.6521 33.1684 9.53471L33.2206 7.95646C33.2336 7.06951 33.2336 6.20865 33.2336 5.3217C33.2336 4.44779 33.2206 3.58693 33.1945 2.72607C33.1814 2.19129 33.1423 1.64347 33.1032 1.10869V0.443475C33.2467 0.273911 33.3771 0.234781 33.5467 0.234781C33.9771 0.221738 34.3945 0.195651 34.7988 0.195651H36.3771C37.9553 0.195651 39.8988 0.430431 40.3162 2.25651C40.5118 3.10432 40.3292 3.89997 39.9249 4.66953C39.664 5.19127 39.051 5.43909 38.5423 5.64778C38.6597 6.11735 38.8553 6.54778 39.051 6.96517C39.2988 7.47386 39.5597 7.98255 39.8205 8.49124C39.964 8.76515 40.251 9.23471 40.3944 9.50862C40.4466 9.59993 40.4988 9.66514 40.5118 9.75645ZM35.5553 2.19129V3.92606C36.0901 3.92606 36.5858 3.92606 37.0684 3.91301C37.1597 3.91301 37.264 3.88693 37.3684 3.82171C37.7205 3.67823 37.9945 3.26084 37.9423 2.9478C37.864 2.4652 37.5901 2.20433 37.1206 2.1652C36.6901 2.13911 36.2597 2.12607 35.8293 2.12607C35.738 2.12607 35.6597 2.15216 35.5553 2.19129Z" fill="white"/>
<path d="M41.822 0.873907C41.8351 0.613039 42.0438 0.404345 42.3046 0.391302C43.4525 0.286955 44.5742 0.273911 45.722 0.273911C46.1264 0.273911 46.4916 0.260867 46.8698 0.299998C46.9872 0.299998 47.0916 0.313041 47.209 0.313041C47.6655 0.313041 48.0959 0.273911 48.5524 0.273911C48.7742 0.273911 48.9829 0.430431 48.9959 0.678256C49.035 0.978253 49.035 1.26521 49.035 1.56521C49.035 2.03477 49.0089 2.30868 48.4872 2.30868C47.7046 2.29563 46.935 2.25651 46.1524 2.24346C45.5394 2.24346 44.9394 2.25651 44.3133 2.26955V3.83475C44.3133 3.95214 44.4177 4.04345 44.5351 4.04345L47.3655 3.99127C47.4307 3.99127 47.4829 4.01736 47.522 4.06954C47.6263 4.22606 47.5481 4.40866 47.5611 4.60431C47.6003 4.95648 47.5872 5.3217 47.6003 5.67387C47.6133 5.79126 47.6263 5.92169 47.4829 6.02604C47.2872 6.013 47.0916 6.013 46.8959 6.013C46.1133 6.013 45.3307 6.06517 44.509 6.06517C44.3655 6.06517 44.3003 6.13039 44.3003 6.26082C44.2612 6.82169 44.3003 7.21299 44.2872 7.79994H45.9829C46.8177 7.7869 47.6655 7.77385 48.5003 7.77385C48.9568 7.77385 49.0481 7.83907 49.0611 8.29559C49.0742 8.72602 49.035 9.15645 48.9959 9.58688C48.9829 9.78254 48.8655 9.87384 48.6698 9.88688C47.4829 9.99123 46.2698 10.0173 45.0307 10.0173C43.9742 10.0173 42.9307 10.0043 41.9394 9.96514C41.8742 9.96514 41.809 9.96514 41.7699 9.9521C41.6786 9.70428 41.7177 9.31297 41.7307 9.09124C41.7307 7.77385 41.7568 6.45647 41.7699 5.13909C41.7829 4.56518 41.7568 3.97823 41.796 3.39128C41.8351 2.67389 41.7699 1.99564 41.809 1.27825C41.809 1.13477 41.822 1.01738 41.822 0.873907Z" fill="white"/>
<path d="M53.0517 6.24778L52.9995 8.75211C52.9865 8.99993 52.9995 9.24776 52.9865 9.49558C52.9734 9.89993 52.9212 9.96514 52.5169 9.96514L50.5995 9.92601C50.443 9.78254 50.456 9.62601 50.456 9.48254C50.3908 6.80864 50.456 3.40432 50.456 0.417388L50.6387 0.260867C51.1995 0.221738 51.7213 0.195651 52.2821 0.195651C53.0778 0.195651 53.8865 0.208694 54.6821 0.247824C55.9604 0.313041 57.1734 0.76956 57.6299 2.0739C57.7995 2.58259 57.9169 3.10433 57.8516 3.66519C57.5777 5.75213 55.856 6.22169 54.043 6.22169C53.743 6.22169 53.4821 6.23474 53.1821 6.19561C53.143 6.18256 53.0908 6.23474 53.0517 6.24778ZM53.0256 4.18692C53.1821 4.22606 53.5082 4.22606 53.8212 4.22606C54.1343 4.22606 54.4343 4.22606 54.5517 4.18692C54.8256 4.12171 55.0473 3.96519 55.2169 3.71736C55.4125 3.41737 55.3343 3.13041 55.2951 2.83041C55.256 2.5565 55.0995 2.3739 54.8517 2.28259C54.7082 2.21737 54.5386 2.1652 54.3821 2.1652C53.9778 2.12607 53.5604 2.13911 53.156 2.13911C53.0908 2.13911 53.0256 2.1652 52.9343 2.20433C52.9995 2.86954 52.8691 3.52171 53.0256 4.18692Z" fill="white"/>
<path d="M59.2942 0.182607H61.642C61.6811 0.182607 61.6941 0.221738 61.7333 0.234781C61.6941 0.6913 61.6811 1.10869 61.6681 1.52608C61.655 2.25651 61.642 2.97389 61.655 3.70432C61.6941 4.49997 61.7202 5.58257 61.7724 6.37821C61.8115 7.04343 62.1767 8.00864 62.9594 8.00864C63.7028 7.94342 63.6898 6.89995 63.755 6.36517C63.9637 4.55214 63.8724 1.83912 63.8724 1.63042C63.8854 1.26521 63.8724 0.978253 63.8724 0.613039C63.8724 0.469562 63.8985 0.365215 63.9115 0.195651C64.0811 0.195651 64.2376 0.208695 64.4072 0.208695C64.8637 0.208695 65.2811 0.182607 65.7376 0.182607C65.8941 0.182607 66.0637 0.195651 66.2332 0.195651C66.2463 0.339128 66.2854 0.443475 66.2854 0.586952C66.2854 2.67389 66.4158 6.13039 66.0376 7.90429C65.8419 8.72602 65.4637 9.22167 64.7332 9.6521C64.1724 9.97819 63.5593 10.1999 62.9333 10.1999C62.0985 10.1999 61.5507 10.1477 60.8594 9.66514C60.4028 9.3521 59.9985 9.10428 59.7376 8.62167C59.3724 7.98255 59.2159 7.27821 59.2159 6.53473C59.2159 5.64778 59.2289 4.49997 59.242 3.61302L59.2942 0.978253C59.3072 0.730429 59.2942 0.482605 59.2942 0.182607Z" fill="white"/>
<path d="M67.8945 9.87384C67.8945 8.94776 67.8685 8.11298 67.9076 7.26516C67.9467 6.43039 67.8815 5.58257 67.9337 4.73475C67.9728 4.21301 67.9467 3.31302 67.9467 2.79128C67.9076 2.11303 67.8945 1.43477 67.8554 0.756516C67.8424 0.560865 67.7771 0.378258 67.9728 0.182607H71.8336C72.7336 0.182607 73.4119 0.430431 74.1293 1.00434C74.4293 1.25216 74.5728 1.63042 74.638 2.00868C74.7423 2.66085 74.6901 3.53476 73.7771 4.27823C73.6858 4.34345 73.738 4.47388 73.8032 4.5391C74.1293 4.83909 74.8467 5.56952 75.0945 6.09126C75.4727 6.89995 75.4075 7.69559 74.9119 8.46515C74.2206 9.50862 73.1902 9.97819 71.938 9.97819L68.7684 9.88688H68.638C68.4815 9.88688 68.3119 9.89993 68.1424 9.89993C68.0511 9.89993 67.9858 9.88688 67.8945 9.87384ZM70.2293 5.94778C70.1641 6.63908 70.1902 7.30429 70.2423 7.99559C70.3467 7.98255 70.4641 7.98255 70.5684 7.98255C70.8684 7.98255 71.1423 8.00864 71.4162 8.00864C71.8989 8.00864 72.3032 7.91733 72.5641 7.46081C72.8249 7.05647 72.7206 6.48256 72.3162 6.23474C72.1075 6.11735 71.8858 6.013 71.638 5.97387C71.2728 5.90865 70.8945 5.92169 70.5163 5.90865C70.4119 5.90865 70.3206 5.92169 70.2293 5.94778ZM70.2293 3.92606C70.425 3.99127 70.5815 4.00432 70.7771 4.00432C71.1945 4.00432 71.5597 3.95214 71.9641 3.80867C72.2771 3.66519 72.4206 3.39128 72.5119 3.06519C72.6032 2.64781 72.3554 2.28259 71.938 2.19129C71.6641 2.13911 71.3771 2.11303 71.1032 2.11303C70.8293 2.11303 70.5684 2.12607 70.2684 2.1652L70.2554 2.17824C70.2424 2.17824 70.2423 2.19129 70.2293 2.19129L70.1771 3.69128C70.1771 3.78258 70.1902 3.83475 70.2293 3.92606Z" fill="white"/>
<path d="M79.1991 7.65646C79.3426 7.66951 79.486 7.68255 79.6295 7.68255C79.9817 7.68255 80.3339 7.64342 80.686 7.64342C81.6643 7.64342 82.6556 7.61733 83.6469 7.56516C83.7512 7.77385 83.7773 9.69123 83.6599 9.8608C82.5121 9.87384 81.3643 9.88688 80.2165 9.92601H79.7599C79.1208 9.92601 78.4947 9.91297 77.8295 9.91297C77.4643 9.91297 77.0991 9.89993 76.7208 9.93906C76.7208 9.62601 76.7078 9.29993 76.7078 8.97385C76.7208 7.73472 76.6817 6.53473 76.7339 5.29561C76.773 4.40866 76.7991 3.50867 76.7861 2.62172C76.7861 1.82607 76.773 1.04347 76.7339 0.208695C76.9817 0.195651 77.2295 0.182607 77.4774 0.182607C77.986 0.182607 78.4686 0.208695 78.9513 0.208695C79.1469 0.326085 79.173 0.482605 79.173 0.678256C79.173 2.08694 79.173 3.44345 79.186 4.85214V7.4869C79.186 7.52603 79.186 7.56516 79.1991 7.65646Z" fill="white"/>
<path d="M84.7965 9.82167C84.7574 6.59995 84.7835 3.46954 84.9009 0.247824H85.0704C85.1096 0.247824 85.1617 0.234781 85.2009 0.234781C85.3574 0.234781 85.5269 0.273911 85.6835 0.273911C85.8269 0.273911 85.9313 0.247824 86.0226 0.208695C86.0356 0.195651 86.0748 0.195651 86.1139 0.195651C86.1661 0.195651 86.2313 0.208695 86.2965 0.208695H86.8574C87.2095 0.208695 87.2617 0.208695 87.2617 0.626083C87.2226 1.30434 87.2356 1.98259 87.2356 2.66085C87.1965 4.60431 87.2095 6.4956 87.2095 8.43907V9.82167C87.1182 9.92601 86.9748 9.93906 86.8313 9.93906H86.74C86.4661 9.93906 86.1791 9.92601 85.9052 9.92601L84.9661 9.87384C84.9009 9.87384 84.8487 9.83471 84.7965 9.82167Z" fill="white"/>
<path d="M95.7868 2.88259C95.7477 2.97389 95.6694 3.02606 95.552 3.02606C95.4868 3.02606 95.4346 3.01302 95.3955 2.97389C94.8868 2.56955 94.0259 2.06085 93.2433 2.06085C93.152 2.06085 93.0868 2.06085 92.9955 2.0739C91.939 2.0739 90.9999 3.14345 90.726 4.08258C90.7129 4.13475 90.6868 4.18692 90.6868 4.2391C90.6868 4.79996 90.6086 5.34779 90.752 5.88256C90.9216 6.57386 91.2738 7.1869 91.8999 7.53907C92.3173 7.76081 92.7738 7.91733 93.2564 7.91733C93.3738 7.91733 93.5042 7.93038 93.6216 7.89125C93.9738 7.83907 94.3129 7.72168 94.6259 7.52603C94.8738 7.35647 95.0825 7.13473 95.3042 6.92603C95.3433 6.8869 95.3694 6.83473 95.4216 6.7956C95.4737 6.75647 95.5129 6.74343 95.552 6.74343C95.6042 6.74343 95.6564 6.76951 95.6955 6.82169C95.7868 6.93908 95.852 7.04343 95.9042 7.1869C96.0998 7.61733 96.2563 8.04777 96.4259 8.4782C96.5694 8.80428 96.5433 8.90863 96.2433 9.10428C95.4085 9.63906 94.5607 9.97819 93.5694 9.97819C93.4781 9.97819 93.3738 9.97819 93.2694 9.96514C92.8912 9.92601 92.4999 9.9521 92.1216 9.88688C91.4564 9.76949 90.8564 9.5608 90.2955 9.15645C89.0173 8.19124 88.5999 6.74343 88.4955 5.21735C88.3912 4.12171 88.6651 3.1565 89.226 2.21737C89.526 1.73477 89.839 1.2913 90.3477 0.991297C90.8042 0.730429 91.2086 0.378258 91.7303 0.260867C92.2912 0.156521 93.0346 0 93.5955 0C94.052 0 94.4955 0.07826 94.952 0.182607C95.4868 0.326085 95.8651 0.639126 96.2694 0.991297C96.439 1.13477 96.4781 1.34347 96.3868 1.53912C96.2172 1.83912 95.9564 2.50433 95.7868 2.88259Z" fill="white"/>
<path d="M105.864 0.0652168C107.064 0.0652168 108.042 0.378258 109.02 1.09564C110.09 1.89129 110.455 2.89563 110.664 4.14779C110.755 4.7217 110.781 5.30866 110.638 5.88256C110.599 6.09126 110.625 6.313 110.573 6.50865C110.416 7.23908 110.077 7.89125 109.62 8.4782C108.799 9.54775 107.52 9.87384 106.242 10.0173C106.177 10.0304 106.099 10.0304 106.033 10.0304C105.681 10.0304 105.329 10.0043 105.003 9.91297C102.903 9.53471 101.664 8.16516 101.468 6.07822C101.429 5.72604 101.377 5.38692 101.377 5.03474C101.364 4.13475 101.481 3.28693 101.938 2.4652C102.251 1.90433 102.629 1.42173 103.099 1.00434C103.973 0.234781 104.781 0.169564 105.864 0.0652168ZM104.116 3.39128C103.816 3.92606 103.66 4.51301 103.66 5.13909C103.673 5.25648 103.66 5.39996 103.699 5.54344C103.907 6.74343 104.807 7.6956 106.073 7.6956C107.273 7.6956 108.173 6.80864 108.381 5.66083C108.473 5.15214 108.355 4.66953 108.342 4.16084C108.342 4.06954 108.29 3.96519 108.251 3.86084C107.873 2.99998 107.025 2.29563 106.06 2.29563C105.316 2.38694 104.52 2.71302 104.116 3.39128Z" fill="white"/>
<path d="M112.087 1.06956C112.1 0.80869 112.309 0.599996 112.57 0.560865C112.87 0.521735 113.13 0.508692 113.43 0.495648C114.096 0.482605 114.748 0.482605 115.413 0.482605C116.352 0.482605 117.265 0.469562 118.204 0.469562C118.374 0.469562 118.543 0.456519 118.7 0.495648C118.948 0.534779 119 0.586952 119 0.834776C119 1.23912 118.987 1.63042 118.987 2.03477V2.23042C118.987 2.3739 118.87 2.49129 118.726 2.49129H118.478C117.957 2.49129 117.435 2.43911 116.926 2.43911H114.8C114.683 2.43911 114.617 2.50433 114.604 2.62172C114.565 2.97389 114.526 3.6391 114.565 4.00432C114.578 4.12171 114.657 4.22606 114.8 4.21301L117.67 4.17388C117.748 4.2391 117.8 4.36953 117.813 4.56518C117.826 5.0217 117.865 5.43909 117.865 5.89561V5.97387C117.826 6.11735 117.735 6.19561 117.591 6.19561C116.639 6.19561 115.687 6.20865 114.735 6.23474C114.63 6.23474 114.552 6.32604 114.552 6.43039C114.552 6.97821 114.578 9.09124 114.539 9.84775C114.526 9.92601 114.474 9.96514 114.409 9.96514L112.126 9.97819C112.048 9.97819 112.009 9.9521 112.009 9.88688C111.957 9.37819 112.009 8.8695 112.009 8.39994C111.996 7.89124 112.022 7.36951 112.035 6.86082C112.035 6.33908 112.035 5.81735 112.048 5.28257C112.048 4.66953 112.022 4.05649 112.061 3.44345C112.1 3.11737 112.074 2.79128 112.074 2.4652C112.035 2.00868 112.074 1.55216 112.087 1.06956Z" fill="white"/>
<path d="M34.0485 20.1174C34.2763 20.3452 34.5041 20.6033 34.747 20.8311C35.476 21.5601 36.0075 22.0308 37.1313 22.0308C37.6021 22.0308 38.0273 21.9701 38.4373 21.7271C39.1207 21.2867 39.0144 20.4515 38.5588 20.087C38.2399 19.7984 37.8906 19.601 37.4199 19.601C37.1009 19.601 36.7668 19.601 36.4479 19.5555C36.0379 19.4795 35.643 19.3429 35.233 19.2669C34.6407 19.1454 34.2003 18.8569 33.7903 18.4469C33.2436 17.9153 33.0917 17.1864 32.9854 16.4574C32.8791 15.6829 33.198 14.9995 33.6232 14.3921C34.4737 13.1772 36.0075 12.7216 37.4199 12.676C37.921 12.676 38.407 12.7671 38.8474 12.9646C39.2574 13.1316 39.6219 13.2987 40.0015 13.4657C40.3205 13.6176 40.5786 13.8302 40.7912 14.1035C40.8975 14.225 40.9279 14.3465 40.852 14.468L40.0927 16.1385C40.0167 16.3208 39.88 16.3815 39.6523 16.4422C39.2118 15.7589 38.0881 15.1058 37.2528 15.1058C36.5998 15.1058 36.0075 15.3033 35.7797 15.9715C35.6582 16.3208 35.9012 16.9586 36.2809 17.1256C36.5087 17.2319 36.7365 17.2775 36.9794 17.3231C37.5869 17.399 38.2095 17.3838 38.8018 17.5053C39.5763 17.6875 40.2901 17.9913 40.8824 18.6139C41.5202 19.3277 41.8239 20.1629 41.7784 21.1197C41.7328 21.9853 41.4442 22.7598 40.7305 23.3217C39.7586 24.0658 38.3158 24.3696 37.1009 24.3696C35.886 24.3696 34.4433 24.0203 33.5473 23.1698C33.441 23.0635 33.3803 22.9724 33.274 22.8661C33.0765 22.6383 33.031 22.3953 33.1373 22.122C33.3651 21.5753 33.5321 21.0134 33.7296 20.4666C33.7903 20.2996 33.8207 20.1629 34.0485 20.1174Z" fill="white"/>
<path d="M46.0791 22.1979H45.9424C45.7753 22.8661 45.6538 23.4584 45.4868 24.0658C45.4868 24.1114 45.4412 24.1569 45.3957 24.2025C44.6819 24.2025 44.0137 24.2329 43.3303 24.2329C43.0114 24.2329 42.7988 23.9595 42.8596 23.6406C42.9203 23.2913 42.9962 22.9268 43.1025 22.5776C43.877 19.601 44.6364 16.6852 45.5931 13.7543C45.6538 13.5265 45.7905 13.2531 45.8968 13.0253C45.9424 12.9494 45.988 12.9038 46.0487 12.8886C46.1094 12.8583 46.1854 12.8431 46.2613 12.8431C46.808 12.8583 47.3547 12.9342 47.9014 12.9342C48.0837 12.9342 48.2507 12.919 48.4178 12.9038C48.4785 12.8886 48.5393 12.9342 48.5848 12.9342L49.3138 15.6981L49.8757 17.809C50.1338 18.7354 50.4224 19.6314 50.6805 20.5578L51.5614 24.0506C51.5765 24.1266 51.5462 24.1721 51.4702 24.1721H50.2553C49.7846 24.1721 49.329 24.1721 49.1315 24.1873C49.086 24.1873 49.0556 24.1569 49.0404 24.1114C48.843 23.5191 48.7519 22.7598 48.5545 22.1371C48.3874 22.122 48.2507 22.122 48.0837 22.122C47.4155 22.122 46.7473 22.1979 46.0791 22.1979ZM48.0229 19.7377C47.9014 18.9176 47.5673 17.2016 47.3699 16.5182C47.3699 16.4726 47.3395 16.4422 47.294 16.4422C47.2484 16.4422 47.218 16.4726 47.2029 16.5182C46.9599 17.5205 46.6106 18.8569 46.4435 19.7833C46.6258 19.8136 46.8536 19.8288 47.1117 19.8288C47.4762 19.8288 47.8407 19.7984 48.0229 19.7377Z" fill="white"/>
<path d="M53.026 24.1114C53.026 23.0331 52.9956 22.0612 53.0412 21.0741C53.0868 20.1022 53.0108 19.1151 53.0716 18.1279C53.1171 17.5205 53.0868 16.4726 53.0868 15.8652C53.0412 15.0755 53.026 14.2858 52.9805 13.4961C52.9653 13.2683 52.8893 13.0557 53.1171 12.8279H57.6123C58.6602 12.8279 59.4499 13.1164 60.2851 13.7846C60.6344 14.0732 60.8015 14.5136 60.8774 14.954C60.9989 15.7133 60.9381 16.7308 59.8751 17.5964C59.7688 17.6723 59.8295 17.8242 59.9055 17.9001C60.2851 18.2494 61.1204 19.0999 61.4089 19.7073C61.8493 20.6489 61.7734 21.5753 61.1963 22.4713C60.3914 23.6862 59.1917 24.2329 57.7338 24.2329L54.0435 24.1266H53.8916C53.7094 24.1266 53.512 24.1418 53.3146 24.1418C53.2083 24.1418 53.1323 24.1266 53.026 24.1114ZM55.7444 19.5403C55.6685 20.3452 55.6988 21.1197 55.7596 21.9245C55.8811 21.9094 56.0177 21.9094 56.1392 21.9094C56.4885 21.9094 56.8074 21.9397 57.1263 21.9397C57.6882 21.9397 58.159 21.8334 58.4628 21.3019C58.7665 20.8311 58.645 20.1629 58.1742 19.8744C57.9312 19.7377 57.6731 19.6162 57.3845 19.5706C56.9593 19.4947 56.5189 19.5099 56.0785 19.4947C55.957 19.4947 55.8507 19.5099 55.7444 19.5403ZM55.7444 17.1864C55.9722 17.2623 56.1544 17.2775 56.3822 17.2775C56.8682 17.2775 57.2934 17.2168 57.7642 17.0497C58.1287 16.8827 58.2957 16.5637 58.402 16.1841C58.5083 15.6981 58.2198 15.2729 57.7338 15.1666C57.4149 15.1058 57.0808 15.0755 56.7619 15.0755C56.443 15.0755 56.1392 15.0907 55.7899 15.1362L55.7748 15.1514C55.7596 15.1514 55.7596 15.1666 55.7444 15.1666L55.6836 16.913C55.6836 17.0193 55.6988 17.0801 55.7444 17.1864Z" fill="white"/>
<path d="M63.4999 20.4363C63.7429 20.5426 63.7733 20.6944 63.834 20.8159C64.1225 21.5904 65.2615 22.0916 66.036 22.0916C66.8105 22.0916 67.2509 21.6967 67.3421 20.9222C67.5091 19.6314 67.4332 18.3406 67.418 17.0497L67.3572 15.0451C67.3572 14.4984 67.3572 13.7998 67.3724 13.2531C67.3724 13.1468 67.3876 13.0405 67.4028 12.919C67.418 12.8734 67.4484 12.8583 67.4939 12.8431C67.6154 12.8279 67.828 12.8279 68.1166 12.8279C68.6481 12.8279 69.3467 12.8431 69.6959 12.8431H70.0604C70.0908 12.9494 70.106 13.0405 70.106 13.1012L70.1515 18.5228C70.1515 19.3125 70.1667 20.1022 70.1667 20.8919C70.1667 22.1068 69.1948 23.3824 68.1773 23.9899C67.585 24.2481 66.9472 24.3847 66.2942 24.3847C65.14 24.3847 63.4847 24.0506 62.6495 23.2458C62.3305 22.9268 62.3154 22.8357 62.4976 22.4713C62.7558 21.9094 62.9836 21.3475 63.2721 20.8007C63.3328 20.6793 63.424 20.5578 63.4999 20.4363Z" fill="white"/>
<path d="M72.1563 24.0506C72.1107 20.2996 72.1411 16.6549 72.2778 12.9038H72.4752C72.5207 12.9038 72.5815 12.8886 72.627 12.8886C72.8093 12.8886 73.0067 12.9342 73.1889 12.9342C73.356 12.9342 73.4775 12.9038 73.5838 12.8583C73.599 12.8431 73.6445 12.8431 73.6901 12.8431C73.7508 12.8431 73.8268 12.8583 73.9027 12.8583H74.5557C74.9658 12.8583 75.0265 12.8583 75.0265 13.3442C74.9809 14.1339 74.9961 14.9236 74.9961 15.7133C74.9506 17.9761 74.9658 20.1781 74.9658 22.4409V24.0506C74.8594 24.1721 74.6924 24.1873 74.5253 24.1873H74.419C74.1001 24.1873 73.766 24.1721 73.4471 24.1721L72.3537 24.1114C72.2778 24.1114 72.217 24.0658 72.1563 24.0506Z" fill="white"/>
<path d="M86.6149 20.087H86.7212C86.782 19.7681 87.3287 16.4119 87.5109 15.0451C87.5565 14.6806 87.678 13.7391 87.7539 13.3746C87.7539 13.2835 87.7691 13.1772 87.7994 13.0557C87.8146 12.9494 87.8906 12.8734 87.9969 12.8583H88.3613C89.3029 12.8583 89.7585 12.8431 90.8064 12.8431C90.8671 12.8431 91.0493 12.8583 90.9734 13.1772C90.7456 13.9517 90.533 14.878 90.3356 15.6677C90.0774 16.7004 89.8648 17.6875 89.6218 18.7202L89.1358 20.573C88.8777 21.5601 88.6499 22.5472 88.4069 23.5343C88.3613 23.6558 88.331 23.8988 88.2854 24.0658C88.2702 24.1266 88.2247 24.2025 88.1639 24.2025C87.7539 24.2025 85.7645 24.1873 85.5063 24.1873C85.0811 24.1873 84.9748 24.1873 84.8533 23.7014C84.5951 22.5624 84.3066 21.4538 84.018 20.3148C83.9117 19.9959 83.8358 19.677 83.7295 19.3277C83.7143 19.2821 83.6839 19.2669 83.6384 19.2669C83.5928 19.2669 83.5624 19.2821 83.5473 19.3277C83.1828 20.4666 82.3931 23.2913 82.1501 24.0051C82.1045 24.1418 82.0286 24.1873 81.8919 24.1721H81.406C80.7985 24.1721 80.2366 24.1873 79.6443 24.1873H79.1888C79.0521 24.1873 78.9762 24.1266 78.9458 24.0203C78.4446 22.532 76.4248 14.4225 76.2426 13.0101C76.2274 12.9038 76.2882 12.8431 76.3945 12.8431C76.683 12.8431 77.2297 12.8583 77.6397 12.8583H78.7332C78.8091 12.8583 78.885 12.8734 78.9761 12.9038C79.0521 12.919 79.0976 12.9797 79.1128 13.0557C79.2495 13.8909 79.3558 14.6654 79.5229 15.4551L80.0392 17.8394L80.5403 20.33C80.5555 20.3755 80.5859 20.4059 80.6315 20.4059C80.677 20.4059 80.7074 20.3907 80.7226 20.3452C81.0111 19.3429 81.7097 16.7004 81.9527 15.4399L82.4083 13.2075C82.469 12.9038 82.5146 12.8734 82.8335 12.8279C83.0613 12.7823 83.3043 12.7975 83.5321 12.7975C83.9117 12.7975 84.2762 12.8127 84.6559 12.8583C84.8988 12.9038 85.0659 12.9797 85.1266 13.2227C85.1874 13.4202 85.2329 13.6176 85.2785 13.815L85.8708 16.8978C85.9771 17.399 86.0834 17.9001 86.2049 18.4013L86.6149 20.087Z" fill="white"/>
<path d="M94.1001 22.1979H93.9635C93.7964 22.8661 93.6749 23.4584 93.5079 24.0658C93.5079 24.1114 93.4623 24.1569 93.4168 24.2025C92.703 24.2025 92.0348 24.2329 91.3514 24.2329C91.0325 24.2329 90.8199 23.9595 90.8806 23.6406C90.9414 23.2913 91.0173 22.9268 91.1236 22.5776C91.8981 19.601 92.6574 16.6852 93.6142 13.7543C93.6749 13.5265 93.8116 13.2531 93.9179 13.0253C93.9635 12.9494 94.009 12.9038 94.0698 12.8886C94.1305 12.8583 94.2065 12.8431 94.2824 12.8431C94.8291 12.8583 95.3758 12.9342 95.9225 12.9342C96.1048 12.9342 96.2718 12.919 96.4389 12.9038C96.4996 12.8886 96.5603 12.9342 96.6059 12.9342L97.3349 15.6981L97.8967 17.809C98.1549 18.7354 98.4435 19.6314 98.7016 20.5578L99.5824 24.0506C99.5976 24.1266 99.5673 24.1721 99.4913 24.1721H98.2764C97.8056 24.1721 97.35 24.1721 97.1526 24.1873C97.1071 24.1873 97.0767 24.1569 97.0615 24.1114C96.8641 23.5191 96.773 22.7598 96.5755 22.1371C96.4085 22.122 96.2718 22.122 96.1048 22.122C95.4366 22.122 94.7683 22.1979 94.1001 22.1979ZM96.044 19.7377C95.9225 18.9176 95.5884 17.2016 95.391 16.5182C95.391 16.4726 95.3606 16.4422 95.3151 16.4422C95.2695 16.4422 95.2391 16.4726 95.2239 16.5182C94.981 17.5205 94.6317 18.8569 94.4646 19.7833C94.6469 19.8136 94.8747 19.8288 95.1328 19.8288C95.4973 19.8288 95.8618 19.7984 96.044 19.7377Z" fill="white"/>
<path d="M103.694 21.5297C103.861 21.5449 104.028 21.5601 104.195 21.5601C104.605 21.5601 105.015 21.5145 105.425 21.5145C106.564 21.5145 107.719 21.4841 108.873 21.4234C108.994 21.6664 109.025 23.8988 108.888 24.0962C107.552 24.1114 106.215 24.1266 104.879 24.1721H104.347C103.603 24.1721 102.874 24.1569 102.1 24.1569C101.674 24.1569 101.249 24.1418 100.809 24.1873C100.809 23.8228 100.794 23.4432 100.794 23.0635C100.809 21.6208 100.763 20.2237 100.824 18.781C100.869 17.7483 100.9 16.7004 100.885 15.6677C100.885 14.7414 100.869 13.8302 100.824 12.8583C101.112 12.8431 101.401 12.8279 101.69 12.8279C102.282 12.8279 102.844 12.8583 103.406 12.8583C103.633 12.9949 103.664 13.1772 103.664 13.405C103.664 15.0451 103.664 16.6245 103.679 18.2646V21.3323C103.679 21.3778 103.679 21.4234 103.694 21.5297Z" fill="white"/>
<path d="M113.439 22.1979H113.302C113.135 22.8661 113.014 23.4584 112.847 24.0658C112.847 24.1114 112.801 24.1569 112.756 24.2025C112.042 24.2025 111.374 24.2329 110.69 24.2329C110.371 24.2329 110.159 23.9595 110.22 23.6406C110.28 23.2913 110.356 22.9268 110.463 22.5776C111.237 19.601 111.996 16.6852 112.953 13.7543C113.014 13.5265 113.151 13.2531 113.257 13.0253C113.302 12.9494 113.348 12.9038 113.409 12.8886C113.469 12.8583 113.545 12.8431 113.621 12.8431C114.168 12.8583 114.715 12.9342 115.261 12.9342C115.444 12.9342 115.611 12.919 115.778 12.9038C115.839 12.8886 115.899 12.9342 115.945 12.9342L116.674 15.6981L117.236 17.809C117.494 18.7354 117.782 19.6314 118.041 20.5578L118.921 24.0506C118.937 24.1266 118.906 24.1721 118.83 24.1721H117.615C117.145 24.1721 116.689 24.1721 116.492 24.1873C116.446 24.1873 116.416 24.1569 116.4 24.1114C116.203 23.5191 116.112 22.7598 115.914 22.1371C115.747 22.122 115.611 22.122 115.444 22.122C114.775 22.122 114.107 22.1979 113.439 22.1979ZM115.383 19.7377C115.261 18.9176 114.927 17.2016 114.73 16.5182C114.73 16.4726 114.7 16.4422 114.654 16.4422C114.608 16.4422 114.578 16.4726 114.563 16.5182C114.32 17.5205 113.971 18.8569 113.804 19.7833C113.986 19.8136 114.214 19.8288 114.472 19.8288C114.836 19.8288 115.201 19.7984 115.383 19.7377Z" fill="white"/>
<path d="M9.93579 0.143564C9.46032 0.143564 9.0195 0.392301 8.77369 0.799292L0.195519 15.0019C-0.0641458 15.4318 -0.0652426 15.97 0.192668 16.4009L4.45038 23.5156C4.69555 23.9253 5.1379 24.1761 5.61534 24.1761H22.86C23.3358 24.1761 23.7768 23.9271 24.0225 23.5197L28.3165 16.4016C28.5766 15.9704 28.5766 15.4307 28.3166 14.9994L19.7564 0.800245C19.5107 0.392712 19.0696 0.143564 18.5937 0.143564H9.93579Z" fill="white"/>
<path fill-rule="evenodd" clip-rule="evenodd" d="M17.9066 11.3772C17.9175 11.4521 17.8738 11.4949 17.8193 11.4842H17.7102C17.3919 11.4842 16.8682 11.5079 16.4573 11.5265C16.1921 11.5385 15.9738 11.5484 15.8882 11.5484C15.8555 11.5484 15.8228 11.527 15.8119 11.4735C15.6133 11.0112 15.3877 10.5112 15.1597 10.0058C14.8865 9.40029 14.6097 8.78697 14.3719 8.22136H13.8373C13.8358 8.24019 13.8343 8.25863 13.8329 8.27673L13.8329 8.27689C13.8236 8.39238 13.8155 8.4941 13.8155 8.59579C13.81 8.67602 13.81 8.75091 13.81 8.82579C13.81 8.90068 13.81 8.97556 13.8046 9.05579L13.7718 10.2326L13.7282 11.2168C13.7173 11.3344 13.7064 11.4093 13.5646 11.527C12.9754 11.527 12.3863 11.5163 11.7972 11.4949C11.7644 11.3772 11.7426 11.2916 11.7426 11.1954L11.7863 9.90092C11.7972 9.17347 11.7972 8.46741 11.7972 7.73996C11.7972 7.02321 11.7863 6.31715 11.7644 5.61109C11.7535 5.17248 11.7208 4.72317 11.6881 4.28456V3.73897C11.8081 3.5999 11.9172 3.56781 12.059 3.56781C12.184 3.56409 12.3076 3.55909 12.4299 3.55414C12.6601 3.54483 12.8855 3.53571 13.1063 3.53571H14.4481C15.7682 3.53571 17.3077 3.72827 17.6568 5.22597C17.8205 5.92133 17.6677 6.5739 17.3295 7.20507C17.1132 7.62926 16.6075 7.83269 16.1842 8.00293L16.1731 8.00741C16.2397 8.26876 16.3761 8.51534 16.5081 8.75383C16.5706 8.86676 16.6321 8.97787 16.6847 9.08789C16.8919 9.50508 17.1101 9.92227 17.3283 10.3395C17.3883 10.4518 17.4783 10.6043 17.5684 10.7567C17.6584 10.9092 17.7484 11.0616 17.8084 11.174C17.8182 11.1908 17.828 11.2065 17.8374 11.2216C17.8699 11.2739 17.8981 11.3191 17.9066 11.3772ZM13.7391 5.17248V6.59529C14.1864 6.59529 14.5366 6.59529 14.9403 6.58459C15.0166 6.58459 15.1039 6.5632 15.1912 6.50971C15.4858 6.39203 15.7149 6.0497 15.6712 5.79295C15.6058 5.39714 15.3767 5.18318 14.9839 5.15109C14.6239 5.12969 14.3282 5.11899 13.9682 5.11899C13.8919 5.11899 13.8264 5.14039 13.7391 5.17248Z" fill="black"/>
<path d="M16.6733 17.9588C16.7421 18.0304 16.8106 18.1054 16.8798 18.1812C16.9855 18.297 17.0928 18.4145 17.2053 18.5243C17.7612 19.1028 18.1698 19.48 19.0872 19.5471C19.4715 19.5752 19.8218 19.556 20.1696 19.4021C20.7511 19.1197 20.7091 18.5005 20.3568 18.2058C20.112 17.975 19.8374 17.8093 19.4531 17.7812C19.1928 17.7621 18.9201 17.7422 18.6622 17.6897C18.4968 17.6496 18.3354 17.5986 18.174 17.5476C18.0126 17.4966 17.8512 17.4455 17.6859 17.4054C17.209 17.2809 16.8649 17.0429 16.5522 16.7175C16.1345 16.2948 16.0496 15.7508 16.002 15.2096C15.9567 14.6348 16.2538 14.1524 16.6335 13.732C17.3929 12.8912 18.6694 12.6485 19.8248 12.6993C20.2339 12.7293 20.7969 12.8251 21.1458 12.9963C21.3901 13.1066 21.6135 13.2154 21.8369 13.3242C21.9114 13.3604 21.9859 13.3967 22.0611 13.433C22.3133 13.5635 22.5126 13.7349 22.6715 13.9482C22.7518 14.0437 22.77 14.1347 22.7015 14.2193L21.992 15.3998C21.9203 15.529 21.8054 15.5654 21.6162 15.5964C21.2934 15.0686 20.2398 14.5223 19.558 14.4725C19.0249 14.4335 18.5309 14.543 18.3091 15.0198C18.1911 15.2688 18.3553 15.7514 18.6562 15.8966C18.8365 15.9883 19.02 16.0353 19.2159 16.0832C19.4122 16.1199 19.6112 16.1462 19.8099 16.1723C20.1089 16.2117 20.4071 16.2509 20.6937 16.3258C21.3162 16.5057 21.8825 16.7712 22.3326 17.2635C22.8149 17.8254 23.018 18.4564 22.9295 19.1558C22.8459 19.7883 22.5688 20.3395 21.9559 20.7092C21.1226 21.1972 19.9286 21.334 18.9369 21.2615C17.9451 21.1889 16.7862 20.8465 16.1004 20.1689C16.0599 20.1267 16.0284 20.088 15.997 20.0493C15.9655 20.0106 15.9341 19.9719 15.8936 19.9297C15.7446 19.7508 15.7205 19.5697 15.8219 19.3755C15.9618 19.1236 16.0811 18.8656 16.1998 18.6089C16.2637 18.4705 16.3275 18.3325 16.3942 18.1961C16.3988 18.1867 16.4033 18.1775 16.4076 18.1684C16.4588 18.0621 16.4997 17.9771 16.6733 17.9588Z" fill="black"/>
<path d="M6.76982 13.0218C6.78145 13.0104 6.79721 13.0041 6.81361 13.0041H9.02105C9.09463 13.0041 9.12299 13.152 9.05931 13.1884C9.02344 13.2089 8.97943 13.2307 8.93282 13.2538C8.83343 13.303 8.72219 13.358 8.65282 13.4189C8.29185 13.7262 8.01293 14.1776 7.81604 14.773C7.62735 15.3685 7.53301 16.0935 7.53301 16.9483C7.53301 17.7934 7.62735 18.5137 7.81604 19.1091C8.01293 19.7045 8.29185 20.1607 8.65282 20.4776C8.71267 20.5301 8.8101 20.5783 8.89871 20.6222C8.94675 20.646 8.99224 20.6685 9.02771 20.6897C9.09242 20.7283 9.05739 20.915 8.98174 20.915H6.83445C6.81829 20.915 6.80275 20.9089 6.79116 20.8977C6.44795 20.5685 6.16199 20.1739 5.93329 19.7141C5.55592 18.9458 5.36723 18.0239 5.36723 16.9483C5.36723 15.8727 5.55592 14.9555 5.93329 14.1968C6.15724 13.7409 6.43608 13.3492 6.76982 13.0218Z" fill="black"/>
<path d="M10.4462 13.1908C10.3825 13.1541 10.4112 13.0041 10.4849 13.0041H12.5899C12.6064 13.0041 12.6222 13.0105 12.6339 13.022C12.9645 13.3494 13.2418 13.741 13.4656 14.1968C13.8511 14.9555 14.0438 15.8727 14.0438 16.9483C14.0438 18.0239 13.8511 18.9458 13.4656 19.7141C13.237 20.1738 12.9527 20.5683 12.6127 20.8975C12.6011 20.9088 12.5855 20.915 12.5692 20.915H10.5271C10.4513 20.915 10.4156 20.7248 10.4801 20.6856C10.578 20.6262 10.6711 20.5568 10.7593 20.4776C11.1201 20.1607 11.3948 19.7045 11.5835 19.1091C11.7721 18.5137 11.8664 17.7934 11.8664 16.9483C11.8664 16.0935 11.7721 15.3685 11.5835 14.773C11.3948 14.1776 11.1201 13.7262 10.7593 13.4189C10.661 13.3306 10.5566 13.2546 10.4462 13.1908Z" fill="black"/>
</svg>
