<svg width="135" height="135" viewBox="0 0 135 135" fill="none" xmlns="http://www.w3.org/2000/svg">
<circle cx="67.0797" cy="67.9165" r="66.5836" fill="#E1FFB7" stroke="#C9C9C9"/>
<path d="M51.6879 25.8798C50.042 25.8798 48.516 26.7408 47.665 28.1497L17.9698 77.3151C17.0709 78.8034 17.0671 80.6663 17.9599 82.1582L32.699 106.787C33.5477 108.206 35.0789 109.074 36.7317 109.074H96.428C98.0749 109.074 99.6016 108.212 100.452 106.802L115.317 82.1605C116.217 80.6679 116.217 78.7994 115.317 77.3065L85.6842 28.153C84.8337 26.7422 83.3066 25.8798 81.6593 25.8798H51.6879Z" fill="black"/>
<path fill-rule="evenodd" clip-rule="evenodd" d="M79.2874 64.7551C79.3251 65.0143 79.1741 65.1625 78.9852 65.1254H78.6076C77.5059 65.1254 75.6928 65.2075 74.2704 65.2719L74.2702 65.2719C73.3521 65.3134 72.5968 65.3476 72.3005 65.3476C72.1872 65.3476 72.0739 65.2736 72.0361 65.0884C71.3489 63.4879 70.5679 61.757 69.7784 60.0074C68.8327 57.9114 67.8747 55.7883 67.0513 53.8304H65.2007C65.1956 53.8954 65.1905 53.9591 65.1855 54.0217L65.1854 54.0226C65.1534 54.4224 65.1252 54.7745 65.1252 55.1266C65.1063 55.4043 65.1063 55.6635 65.1063 55.9227C65.1063 56.1819 65.1063 56.4412 65.0874 56.719L64.9741 60.7926L64.8231 64.1996C64.7853 64.607 64.7475 64.8662 64.2566 65.2736C62.2171 65.2736 60.1777 65.2365 58.1383 65.1625C58.025 64.7551 57.9495 64.4588 57.9495 64.1255L58.1006 59.6446C58.1383 57.1263 58.1383 54.6822 58.1383 52.1639C58.1383 49.6827 58.1006 47.2385 58.025 44.7944C57.9873 43.276 57.874 41.7206 57.7607 40.2023V38.3136C58.1761 37.8322 58.5538 37.7211 59.0447 37.7211C59.4773 37.7082 59.9053 37.6909 60.3288 37.6738C61.1254 37.6416 61.9059 37.61 62.6704 37.61H67.3153C71.8851 37.61 77.2143 38.2766 78.4228 43.4612C78.9893 45.8683 78.4606 48.1273 77.2898 50.3123C76.5411 51.7807 74.7903 52.4849 73.3251 53.0742L73.2865 53.0897C73.5172 53.9945 73.9895 54.8481 74.4463 55.6737C74.6626 56.0646 74.8754 56.4492 75.0575 56.8301C75.775 58.2743 76.5303 59.7185 77.2856 61.1627L77.2857 61.1629C77.4934 61.5517 77.8049 62.0793 78.1164 62.6069L78.1166 62.6072C78.4282 63.1349 78.7398 63.6627 78.9475 64.0515C78.9814 64.1096 79.0153 64.1641 79.0479 64.2165C79.1606 64.3975 79.2581 64.554 79.2874 64.7551ZM64.8608 43.276V48.2014C66.4093 48.2014 67.6215 48.2014 69.0189 48.1644C69.2833 48.1644 69.5854 48.0903 69.8875 47.9051C70.9072 47.4978 71.7003 46.3127 71.5493 45.4239C71.3227 44.0537 70.5296 43.3131 69.17 43.202C67.9236 43.1279 66.9002 43.0909 65.6539 43.0909C65.3896 43.0909 65.163 43.1649 64.8608 43.276Z" fill="#E1FFB7"/>
<path d="M75.0175 87.5393C75.2556 87.7869 75.4927 88.0467 75.7324 88.3092C76.0981 88.7099 76.4697 89.1169 76.859 89.4968C78.7834 91.4993 80.198 92.805 83.3736 93.0373C84.704 93.1346 85.9169 93.0681 87.1207 92.5356C89.1337 91.5581 88.9884 89.4143 87.7687 88.3942C86.9211 87.5953 85.9708 87.0216 84.6404 86.9243C83.7393 86.8584 82.7951 86.7894 81.9024 86.6077C81.3301 86.4689 80.7714 86.2923 80.2126 86.1157C79.6539 85.9391 79.0951 85.7625 78.5228 85.6237C76.8718 85.1926 75.6808 84.3686 74.5983 83.2422C73.1522 81.779 72.8585 79.8958 72.6935 78.0221C72.537 76.0326 73.5651 74.3625 74.8796 72.9072C77.5085 69.9967 81.9275 69.1563 85.927 69.3324C87.3432 69.436 89.2923 69.7679 90.5002 70.3605C91.3459 70.7423 92.1192 71.1188 92.8926 71.4954C93.1503 71.6209 93.4081 71.7464 93.6685 71.8721C94.5415 72.3238 95.2316 72.9172 95.7816 73.6556C96.0594 73.9862 96.1227 74.3011 95.8855 74.594L93.4295 78.6808C93.181 79.128 92.7835 79.2541 92.1285 79.3613C91.011 77.5343 87.3638 75.6431 85.0035 75.4705C83.1582 75.3356 81.4479 75.7147 80.68 77.3651C80.2718 78.2273 80.8399 79.8978 81.8818 80.4006C82.5057 80.7177 83.141 80.8806 83.8191 81.0465C84.4987 81.1736 85.1877 81.2643 85.8755 81.3549C86.9107 81.4912 87.9429 81.6271 88.935 81.8861C91.0898 82.5091 93.0503 83.4282 94.6083 85.1323C96.2781 87.0773 96.9812 89.2619 96.6747 91.683C96.3851 93.8725 95.4259 95.7804 93.3045 97.0603C90.4197 98.7498 86.2865 99.2232 82.8533 98.9721C79.4202 98.7211 75.4082 97.5356 73.0342 95.19C72.8939 95.044 72.7851 94.91 72.6762 94.776C72.5674 94.642 72.4585 94.5079 72.3182 94.3619C71.8027 93.7425 71.7191 93.1158 72.0702 92.4433C72.5545 91.5715 72.9675 90.6782 73.3782 89.7895C73.5996 89.3105 73.8205 88.8328 74.0514 88.3607C74.0673 88.3284 74.0827 88.2965 74.0977 88.2652L74.0979 88.2649C74.275 87.8969 74.4166 87.6025 75.0175 87.5393Z" fill="#E1FFB7"/>
<path d="M40.7343 70.4495C40.7745 70.41 40.8291 70.3881 40.8859 70.3881H48.5274C48.7821 70.3881 48.8803 70.9003 48.6598 71.0262C48.5356 71.0972 48.3833 71.1726 48.2219 71.2525C47.8778 71.4229 47.4928 71.6134 47.2527 71.8243C46.0031 72.8881 45.0376 74.4506 44.356 76.5118C43.7028 78.573 43.3762 81.083 43.3762 84.0418C43.3762 86.9674 43.7028 89.4608 44.356 91.522C45.0376 93.5832 46.0031 95.1623 47.2527 96.2594C47.4599 96.4413 47.7971 96.6082 48.1039 96.7599C48.2702 96.8422 48.4277 96.9201 48.5505 96.9935C48.7745 97.1274 48.6532 97.7736 48.3913 97.7736H40.958C40.9021 97.7736 40.8483 97.7523 40.8081 97.7139C39.6201 96.5739 38.6301 95.2081 37.8384 93.6164C36.5321 90.9568 35.8789 87.7653 35.8789 84.0418C35.8789 80.3184 36.5321 77.1435 37.8384 74.5171C38.6137 72.9388 39.579 71.5829 40.7343 70.4495Z" fill="#E1FFB7"/>
<path d="M53.4608 71.0347C53.2405 70.9075 53.3398 70.3881 53.595 70.3881H60.8817C60.9388 70.3881 60.9937 70.4103 61.034 70.4502C62.1786 71.5835 63.1383 72.9391 63.9132 74.5171C65.2475 77.1435 65.9147 80.3184 65.9147 84.0418C65.9147 87.7653 65.2475 90.9568 63.9132 93.6164C63.1219 95.2078 62.1378 96.5734 60.9608 97.7132C60.9206 97.7521 60.8665 97.7736 60.8102 97.7736H53.7408C53.4784 97.7736 53.3548 97.1151 53.5783 96.9794C53.9173 96.7737 54.2393 96.5337 54.5446 96.2594C55.7937 95.1623 56.7448 93.5832 57.3977 91.522C58.0507 89.4608 58.3772 86.9674 58.3772 84.0418C58.3772 81.083 58.0507 78.573 57.3977 76.5118C56.7448 74.4506 55.7937 72.8881 54.5446 71.8243C54.2043 71.5185 53.843 71.2553 53.4608 71.0347Z" fill="#E1FFB7"/>
</svg>
