<svg width="50" height="50" viewBox="0 0 50 50" fill="none" xmlns="http://www.w3.org/2000/svg">
<circle cx="25" cy="25" r="25" fill="white"/>
<path d="M35.375 14.625L37.5 20.375C37.9097 21.5013 37.7564 22.7555 37.0875 23.75C36.3286 24.8563 35.0906 25.5378 33.75 25.5875C31.6577 25.7473 29.7686 24.3384 29.325 22.2875C29.325 22.2875 29.25 22.2875 29.2375 22.2875C28.8232 24.2764 27.0298 25.673 25 25.5875C22.9794 25.6605 21.2003 24.2668 20.7875 22.2875C20.7875 22.2875 20.7125 22.2875 20.7 22.2875C20.458 23.3874 19.7881 24.3458 18.8382 24.9509C17.8883 25.556 16.7366 25.7581 15.6375 25.5125C14.6605 25.3519 13.7735 24.8463 13.1375 24.0875C12.3128 23.043 12.1035 21.6397 12.5875 20.4L14.6625 14.625C15.15 13.3959 16.3532 12.6021 17.675 12.6375H32.3625C33.6843 12.6021 34.8875 13.3959 35.375 14.625Z" fill="black"/>
<path d="M33.875 27.5V33.875C33.8554 34.5746 33.5585 35.2377 33.0498 35.7183C32.541 36.199 31.8621 36.4577 31.1625 36.4375H27.625V32.5C27.5576 31.1857 26.4395 30.1738 25.125 30.2375C24.4754 30.2304 23.8466 30.4667 23.3625 30.9C22.8967 31.3015 22.6278 31.8851 22.625 32.5V36.4375H19.0875C18.3794 36.4577 17.693 36.1922 17.1827 35.7007C16.6725 35.2093 16.3814 34.5333 16.375 33.825V27.5H16.475C18.0417 27.503 19.5546 26.929 20.725 25.8875C23.178 28.0275 26.8345 28.0275 29.2875 25.8875C30.4624 26.9378 31.9866 27.5127 33.5625 27.5H33.875Z" fill="black"/>
</svg>
